<svg width="254" height="70" fill="none" xmlns="http://www.w3.org/2000/svg"><g clip-path="url(#a)"><path d="M111 2c0-1.104569.895-2 2-2h28c1.105 0 2 .895431 2 2v28c0 1.1046-.895 2-2 2h-28c-1.105 0-2-.8954-2-2V2Z" fill="#0278FE"/><path d="M143 6h-32v2h32V6Z" fill="#2A2C2F"/><path d="M124 6h-2v26h2V6Z" fill="#2A2C2F"/><path d="m118.313 69.0001.838-2.7841h4.801l.838 2.7841h4.262l-4.801-14.5455h-5.398l-4.801 14.5455h4.261Zm1.733-5.7387 1.449-4.8011h.114l1.449 4.8011h-3.012ZM130.453 69.0001h3.949v-4.8012h1.363l2.557 4.8012h4.29l-2.955-5.4262c1.549-.7457 2.472-2.159 2.472-4.1761 0-3.0966-2.166-4.9432-5.398-4.9432h-6.278v14.5455Zm3.949-7.8693V57.608h1.392c1.385 0 2.216.5398 2.216 1.7898 0 1.2429-.831 1.733-2.216 1.733h-1.392ZM143.414 57.6364h4.375v11.3637h3.892V57.6364h4.375v-3.1818h-12.642v3.1818ZM170.973 59.2559h3.991c-.305-2.9191-2.954-5-6.392-5-3.92 0-7.102 2.6988-7.102 7.5 0 4.6022 2.884 7.4431 7.131 7.4431 3.807 0 6.534-2.3295 6.534-6.3068v-2.017h-6.449v2.8125h2.642c-.035 1.2642-.93 2.0738-2.699 2.0738-2.045 0-3.096-1.5056-3.096-4.0625 0-2.5213 1.136-4.0056 3.125-4.0056 1.235 0 2.074.5681 2.315 1.5625ZM180.305 69.0001l.838-2.7841h4.802l.838 2.7841h4.261l-4.801-14.5455h-5.398l-4.801 14.5455h4.261Zm1.733-5.7387 1.449-4.8011h.114l1.449 4.8011h-3.012ZM192.445 69.0001h9.83v-3.1818h-5.881V54.4546h-3.949v14.5455ZM203.871 69.0001h9.829v-3.1818h-5.88V54.4546h-3.949v14.5455ZM215.297 69.0001h10.454v-3.1818h-6.506v-2.5h5.995v-3.1819h-5.995v-2.5h6.534v-3.1818h-10.482v14.5455ZM227.738 69.0001h3.949v-4.8012h1.363l2.557 4.8012h4.29l-2.955-5.4262c1.549-.7457 2.472-2.159 2.472-4.1761 0-3.0966-2.166-4.9432-5.398-4.9432h-6.278v14.5455Zm3.949-7.8693V57.608h1.392c1.385 0 2.216.5398 2.216 1.7898 0 1.2429-.831 1.733-2.216 1.733h-1.392ZM239.817 54.4546l5.341 9.9716v4.5739h3.92v-4.5739l5.341-9.9716h-4.403l-2.841 5.9091h-.114l-2.84-5.9091h-4.404ZM108.637 54.4546V69h-3.295l-5.256-7.642h-.085V69h-3.9488V54.4546h3.3523l5.1705 7.6136h.114v-7.6136h3.948ZM83.6118 69V54.4546h10.4829v3.1818h-6.534v2.5h5.9943v3.1818h-5.9943v2.5h6.5056V69H83.6118ZM69.4839 57.6364v-3.1818h12.642v3.1818h-4.375V69h-3.892V57.6364h-4.375ZM57.4399 69V54.4546h10.483v3.1818h-6.5341v2.5h5.9943v3.1818h-5.9943v2.5h6.5057V69H57.4399ZM46.0137 69V54.4546h3.9488v11.3636h5.8807V69h-9.8295ZM32.8887 69V54.4546h6.2784c1.0795 0 2.0241.2131 2.8338.6392.8096.4261 1.4393 1.0251 1.8892 1.7969.4498.7717.6747 1.6737.6747 2.7059 0 1.0417-.232 1.9437-.6961 2.706-.4592.7623-1.1055 1.3494-1.9389 1.7613-.8286.412-1.7968.6179-2.9048.6179h-3.75v-3.0681h2.9546c.464 0 .8593-.0805 1.186-.2415.3315-.1657.5848-.4001.76-.7031.1799-.3031.2699-.6605.2699-1.0725 0-.4166-.09-.7718-.2699-1.0653-.1752-.2983-.4285-.5256-.76-.6818-.3267-.161-.722-.2415-1.186-.2415h-1.3921V69h-3.9488ZM31.0177 54.4546V69h-3.9489V54.4546h3.9489ZM13.7095 69V54.4546h6.2784c1.0795 0 2.0241.1965 2.8338.5895.8096.393 1.4393.9588 1.8892 1.6974.4498.7386.6747 1.6241.6747 2.6563 0 1.0416-.232 1.9199-.696 2.6349-.4593.715-1.1056 1.2547-1.939 1.6193-.8286.3646-1.7968.5469-2.9048.5469h-3.75v-3.0682h2.9546c.464 0 .8593-.0568 1.186-.1704.3315-.1184.5848-.3054.76-.5611.1799-.2557.2699-.5895.2699-1.0014 0-.4167-.09-.7552-.2699-1.0157-.1752-.2651-.4285-.4592-.76-.5824-.3267-.1278-.722-.1917-1.186-.1917h-1.3921V69h-3.9488Zm8.5227-6.6761L25.8685 69h-4.2897l-3.5512-6.6761h4.2046ZM-.418457 57.6364v-3.1818H12.2235v3.1818H7.84856V69H3.95653V57.6364H-.418457Z" fill="#fff"/></g><defs><clipPath id="a"><path fill="#fff" d="M0 0h254v70H0z"/></clipPath></defs></svg>